<svg width="3301" height="1024" viewBox="0 0 3301 1024" fill="none" xmlns="http://www.w3.org/2000/svg">
<rect width="3301" height="1024" rx="149" fill="#FF511E"/>
<path d="M1055.8 388.528C1068.94 388.528 1080.44 391.197 1090.3 396.536C1093.58 398.179 1094.81 401.259 1093.99 405.776L1083.52 461.216C1083.11 466.144 1080.23 467.581 1074.9 465.528C1068.74 463.475 1061.55 462.448 1053.34 462.448C1048 462.448 1043.89 462.653 1041.02 463.064C1023.77 463.885 1009.39 470.045 997.896 481.544C986.397 492.632 980.648 507.211 980.648 525.28V699.608C980.648 701.661 979.827 703.509 978.184 705.152C976.952 706.384 975.309 707 973.256 707H916.584C914.531 707 912.683 706.384 911.04 705.152C909.808 703.509 909.192 701.661 909.192 699.608V399.616C909.192 397.563 909.808 395.92 911.04 394.688C912.683 393.045 914.531 392.224 916.584 392.224H973.256C975.309 392.224 976.952 393.045 978.184 394.688C979.827 395.92 980.648 397.563 980.648 399.616V427.336C980.648 428.979 980.853 430.005 981.264 430.416C982.085 430.416 982.907 429.8 983.728 428.568C1000.98 401.875 1025 388.528 1055.8 388.528ZM1363.31 514.192C1364.96 524.459 1365.78 535.957 1365.78 548.688L1365.16 567.784C1365.16 572.712 1362.7 575.176 1357.77 575.176H1164.96C1162.91 575.176 1161.88 576.203 1161.88 578.256C1163.11 591.808 1164.96 601.048 1167.43 605.976C1177.28 635.544 1201.31 650.533 1239.5 650.944C1267.42 650.944 1289.6 639.445 1306.03 616.448C1307.67 613.984 1309.72 612.752 1312.19 612.752C1313.83 612.752 1315.27 613.368 1316.5 614.6L1354.69 646.016C1358.39 648.891 1359 652.176 1356.54 655.872C1343.81 673.941 1326.76 687.904 1305.41 697.76C1284.47 707.616 1261.06 712.544 1235.19 712.544C1203.15 712.544 1175.84 705.357 1153.26 690.984C1131.08 676.611 1114.86 656.488 1104.59 630.616C1095.15 608.44 1090.43 577.64 1090.43 538.216C1090.43 514.397 1092.89 495.096 1097.82 480.312C1106.03 451.565 1121.43 428.979 1144.02 412.552C1167.02 395.715 1194.53 387.296 1226.56 387.296C1307.46 387.296 1353.05 429.595 1363.31 514.192ZM1226.56 448.896C1211.37 448.896 1198.64 452.797 1188.37 460.6C1178.51 467.992 1171.53 478.464 1167.43 492.016C1164.96 498.997 1163.32 508.032 1162.5 519.12C1161.68 521.173 1162.5 522.2 1164.96 522.2H1290.01C1292.06 522.2 1293.09 521.173 1293.09 519.12C1292.27 508.853 1291.04 501.051 1289.39 495.712C1285.7 480.928 1278.31 469.429 1267.22 461.216C1256.54 453.003 1242.99 448.896 1226.56 448.896ZM1506.35 710.696C1480.48 710.696 1457.69 707 1437.98 699.608C1418.67 691.805 1403.68 681.333 1393.01 668.192C1382.33 654.64 1376.99 639.651 1376.99 623.224V617.68C1376.99 615.627 1377.61 613.984 1378.84 612.752C1380.48 611.109 1382.33 610.288 1384.38 610.288H1438.59C1440.64 610.288 1442.29 611.109 1443.52 612.752C1445.16 613.984 1445.98 615.627 1445.98 617.68V618.912C1445.98 629.179 1451.53 638.213 1462.62 646.016C1474.11 653.408 1488.49 657.104 1505.74 657.104C1522.16 657.104 1535.51 653.819 1545.78 647.248C1556.04 640.267 1561.18 631.643 1561.18 621.376C1561.18 611.931 1556.86 604.949 1548.24 600.432C1540.03 595.504 1526.47 590.371 1507.58 585.032L1484.18 577.64C1463.23 571.48 1445.57 564.909 1431.2 557.928C1416.83 550.947 1404.71 541.501 1394.86 529.592C1385 517.272 1380.07 501.667 1380.07 482.776C1380.07 454.029 1391.36 431.237 1413.95 414.4C1436.54 397.152 1466.31 388.528 1503.27 388.528C1528.32 388.528 1550.29 392.635 1569.18 400.848C1588.07 408.651 1602.65 419.739 1612.92 434.112C1623.19 448.075 1628.32 464.091 1628.32 482.16C1628.32 484.213 1627.5 486.061 1625.86 487.704C1624.62 488.936 1622.98 489.552 1620.93 489.552H1568.57C1566.51 489.552 1564.67 488.936 1563.02 487.704C1561.79 486.061 1561.18 484.213 1561.18 482.16C1561.18 471.483 1555.84 462.653 1545.16 455.672C1534.89 448.28 1520.72 444.584 1502.66 444.584C1486.64 444.584 1473.5 447.664 1463.23 453.824C1453.38 459.573 1448.45 467.787 1448.45 478.464C1448.45 488.32 1453.17 495.917 1462.62 501.256C1472.47 506.184 1488.69 511.728 1511.28 517.888L1524.83 521.584C1546.6 528.155 1564.87 534.931 1579.66 541.912C1594.44 548.483 1606.96 557.928 1617.23 570.248C1627.5 582.157 1632.63 597.763 1632.63 617.064C1632.63 646.221 1621.13 669.219 1598.14 686.056C1575.14 702.483 1544.54 710.696 1506.35 710.696ZM1819.39 391.608C1821.45 391.608 1823.09 392.429 1824.32 394.072C1825.97 395.304 1826.79 396.947 1826.79 399V447.664C1826.79 449.717 1825.97 451.565 1824.32 453.208C1823.09 454.44 1821.45 455.056 1819.39 455.056H1758.41C1756.36 455.056 1755.33 456.083 1755.33 458.136V699.608C1755.33 701.661 1754.51 703.509 1752.87 705.152C1751.63 706.384 1749.99 707 1747.94 707H1691.27C1689.21 707 1687.37 706.384 1685.72 705.152C1684.49 703.509 1683.87 701.661 1683.87 699.608V458.136C1683.87 456.083 1682.85 455.056 1680.79 455.056H1642.6C1640.55 455.056 1638.7 454.44 1637.06 453.208C1635.83 451.565 1635.21 449.717 1635.21 447.664V399C1635.21 396.947 1635.83 395.304 1637.06 394.072C1638.7 392.429 1640.55 391.608 1642.6 391.608H1680.79C1682.85 391.608 1683.87 390.581 1683.87 388.528V377.44C1683.87 350.747 1687.37 330.213 1694.35 315.84C1701.33 301.056 1712.83 290.584 1728.84 284.424C1744.86 278.264 1767.45 275.389 1796.6 275.8H1818.16C1820.22 275.8 1821.86 276.621 1823.09 278.264C1824.73 279.496 1825.55 281.139 1825.55 283.192V326.312C1825.55 328.365 1824.73 330.213 1823.09 331.856C1821.86 333.088 1820.22 333.704 1818.16 333.704H1802.15C1784.49 333.704 1772.17 337.195 1765.19 344.176C1758.62 351.157 1755.33 363.888 1755.33 382.368V388.528C1755.33 390.581 1756.36 391.608 1758.41 391.608H1819.39ZM2093.42 514.192C2095.06 524.459 2095.88 535.957 2095.88 548.688L2095.27 567.784C2095.27 572.712 2092.8 575.176 2087.87 575.176H1895.07C1893.01 575.176 1891.99 576.203 1891.99 578.256C1893.22 591.808 1895.07 601.048 1897.53 605.976C1907.39 635.544 1931.41 650.533 1969.6 650.944C1997.53 650.944 2019.7 639.445 2036.13 616.448C2037.77 613.984 2039.83 612.752 2042.29 612.752C2043.93 612.752 2045.37 613.368 2046.6 614.6L2084.79 646.016C2088.49 648.891 2089.11 652.176 2086.64 655.872C2073.91 673.941 2056.87 687.904 2035.51 697.76C2014.57 707.616 1991.16 712.544 1965.29 712.544C1933.26 712.544 1905.95 705.357 1883.36 690.984C1861.19 676.611 1844.97 656.488 1834.7 630.616C1825.25 608.44 1820.53 577.64 1820.53 538.216C1820.53 514.397 1822.99 495.096 1827.92 480.312C1836.14 451.565 1851.54 428.979 1874.12 412.552C1897.12 395.715 1924.63 387.296 1956.67 387.296C2037.57 387.296 2083.15 429.595 2093.42 514.192ZM1956.67 448.896C1941.47 448.896 1928.74 452.797 1918.47 460.6C1908.62 467.992 1901.64 478.464 1897.53 492.016C1895.07 498.997 1893.42 508.032 1892.6 519.12C1891.78 521.173 1892.6 522.2 1895.07 522.2H2020.11C2022.17 522.2 2023.19 521.173 2023.19 519.12C2022.37 508.853 2021.14 501.051 2019.5 495.712C2015.8 480.928 2008.41 469.429 1997.32 461.216C1986.65 453.003 1973.09 448.896 1956.67 448.896ZM2389.72 473.536C2396.71 496.533 2400.2 521.584 2400.2 548.688C2400.2 577.845 2396.29 603.512 2388.49 625.688C2379.46 652.792 2364.88 673.941 2344.76 689.136C2324.63 704.331 2299.99 711.928 2270.84 711.928C2242.09 711.928 2218.48 701.045 2200 679.28C2199.17 678.048 2198.35 677.637 2197.53 678.048C2196.71 678.459 2196.3 679.28 2196.3 680.512V699.608C2196.3 701.661 2195.48 703.509 2193.84 705.152C2192.6 706.384 2190.96 707 2188.91 707H2132.24C2130.18 707 2128.33 706.384 2126.69 705.152C2125.46 703.509 2124.84 701.661 2124.84 699.608V283.192C2124.84 281.139 2125.46 279.496 2126.69 278.264C2128.33 276.621 2130.18 275.8 2132.24 275.8H2188.91C2190.96 275.8 2192.6 276.621 2193.84 278.264C2195.48 279.496 2196.3 281.139 2196.3 283.192V416.864C2196.3 418.096 2196.71 418.917 2197.53 419.328C2198.35 419.739 2199.17 419.533 2200 418.712C2217.65 397.768 2241.06 387.296 2270.22 387.296C2300.61 387.296 2325.66 394.893 2345.37 410.088C2365.49 425.283 2380.28 446.432 2389.72 473.536ZM2312.11 620.76C2321.96 603.512 2326.89 579.899 2326.89 549.92C2326.89 517.888 2320.73 492.837 2308.41 474.768C2297.32 457.52 2280.9 448.896 2259.13 448.896C2239.01 448.896 2223.61 457.931 2212.93 476C2202.67 492.837 2197.53 517.272 2197.53 549.304C2197.53 580.925 2202.25 604.744 2211.7 620.76C2222.38 640.472 2238.39 650.328 2259.75 650.328C2271.25 650.328 2281.51 647.864 2290.55 642.936C2299.58 637.597 2306.77 630.205 2312.11 620.76ZM2694.45 514.192C2696.09 524.459 2696.92 535.957 2696.92 548.688L2696.3 567.784C2696.3 572.712 2693.84 575.176 2688.91 575.176H2496.1C2494.05 575.176 2493.02 576.203 2493.02 578.256C2494.25 591.808 2496.1 601.048 2498.56 605.976C2508.42 635.544 2532.44 650.533 2570.64 650.944C2598.56 650.944 2620.74 639.445 2637.16 616.448C2638.81 613.984 2640.86 612.752 2643.32 612.752C2644.97 612.752 2646.4 613.368 2647.64 614.6L2685.83 646.016C2689.52 648.891 2690.14 652.176 2687.68 655.872C2674.94 673.941 2657.9 687.904 2636.55 697.76C2615.6 707.616 2592.2 712.544 2566.32 712.544C2534.29 712.544 2506.98 705.357 2484.4 690.984C2462.22 676.611 2446 656.488 2435.73 630.616C2426.29 608.44 2421.56 577.64 2421.56 538.216C2421.56 514.397 2424.03 495.096 2428.96 480.312C2437.17 451.565 2452.57 428.979 2475.16 412.552C2498.15 395.715 2525.67 387.296 2557.7 387.296C2638.6 387.296 2684.18 429.595 2694.45 514.192ZM2557.7 448.896C2542.5 448.896 2529.77 452.797 2519.51 460.6C2509.65 467.992 2502.67 478.464 2498.56 492.016C2496.1 498.997 2494.46 508.032 2493.64 519.12C2492.81 521.173 2493.64 522.2 2496.1 522.2H2621.15C2623.2 522.2 2624.23 521.173 2624.23 519.12C2623.41 508.853 2622.17 501.051 2620.53 495.712C2616.84 480.928 2609.44 469.429 2598.36 461.216C2587.68 453.003 2574.13 448.896 2557.7 448.896ZM2871.87 388.528C2885.01 388.528 2896.51 391.197 2906.37 396.536C2909.65 398.179 2910.88 401.259 2910.06 405.776L2899.59 461.216C2899.18 466.144 2896.3 467.581 2890.97 465.528C2884.81 463.475 2877.62 462.448 2869.41 462.448C2864.07 462.448 2859.96 462.653 2857.09 463.064C2839.84 463.885 2825.46 470.045 2813.97 481.544C2802.47 492.632 2796.72 507.211 2796.72 525.28V699.608C2796.72 701.661 2795.9 703.509 2794.25 705.152C2793.02 706.384 2791.38 707 2789.33 707H2732.65C2730.6 707 2728.75 706.384 2727.11 705.152C2725.88 703.509 2725.26 701.661 2725.26 699.608V399.616C2725.26 397.563 2725.88 395.92 2727.11 394.688C2728.75 393.045 2730.6 392.224 2732.65 392.224H2789.33C2791.38 392.224 2793.02 393.045 2794.25 394.688C2795.9 395.92 2796.72 397.563 2796.72 399.616V427.336C2796.72 428.979 2796.92 430.005 2797.33 430.416C2798.15 430.416 2798.98 429.8 2799.8 428.568C2817.05 401.875 2841.07 388.528 2871.87 388.528Z" fill="white"/>
<path d="M706.795 549.401H517.205C509.581 549.401 503.4 555.582 503.4 563.206V599.736C503.4 645.956 541.002 683.558 587.222 683.558H636.777C682.997 683.558 720.598 645.956 720.598 599.736V563.206C720.599 555.581 714.419 549.401 706.795 549.401ZM636.778 655.95H587.223C556.226 655.95 531.01 630.732 531.01 599.737V577.011H692.99V599.737C692.99 630.732 667.774 655.95 636.778 655.95Z" fill="white"/>
<path d="M706.795 494.344H517.205C509.581 494.344 503.4 500.525 503.4 508.148C503.4 515.772 509.581 521.953 517.205 521.953H706.794C714.418 521.953 720.599 515.772 720.599 508.148C720.599 500.525 714.419 494.344 706.795 494.344Z" fill="white"/>
<path d="M780.226 494.973V477.257C780.226 456.311 776.367 436.252 769.341 417.74V318.33C769.341 299.952 754.39 285.001 736.011 285.001H705.188C686.809 285.001 671.858 299.952 671.858 318.33V320.046C653.251 312.938 633.074 309.031 612 309.031C590.926 309.031 570.751 312.938 552.144 320.045V318.329C552.144 299.951 537.193 285 518.815 285H487.992C469.614 285 454.663 299.951 454.663 318.329V417.729C447.634 436.245 443.773 456.307 443.773 477.257V494.973C408.313 500.181 381 530.797 381 567.681V635.703C381 658.539 399.577 677.116 422.412 677.116H443.774V683.109C443.774 714.223 469.089 739.537 500.202 739.537H723.798C754.912 739.537 780.226 714.223 780.226 683.109V677.116H801.588C824.423 677.116 843 658.539 843 635.703V567.681C843 530.797 815.686 500.181 780.226 494.973ZM443.774 649.506H422.412C414.801 649.506 408.609 643.313 408.609 635.702V567.68C408.609 546.068 423.626 527.897 443.774 523.056V649.506ZM699.467 318.33C699.467 315.176 702.033 312.61 705.188 312.61H736.011C739.166 312.61 741.732 315.176 741.732 318.33V370.274C729.805 355.837 715.517 343.418 699.468 333.61L699.467 318.33ZM482.273 318.33C482.273 315.176 484.839 312.61 487.993 312.61H518.816C521.97 312.61 524.536 315.176 524.536 318.33V333.607C508.488 343.415 494.201 355.832 482.274 370.269L482.273 318.33ZM752.617 683.108C752.617 698.999 739.688 711.926 723.799 711.926H500.202C484.311 711.926 471.384 698.998 471.384 683.108V477.257C471.384 399.721 534.465 336.64 612.001 336.64C670.323 336.64 720.462 372.333 741.732 423.021V423.05H741.743C748.743 439.741 752.617 458.055 752.617 477.258V683.108ZM815.391 635.704C815.391 643.315 809.198 649.508 801.588 649.508H780.226V523.057C800.374 527.899 815.391 546.069 815.391 567.681V635.704Z" fill="white"/>
</svg>
