<svg width="2538" height="739" viewBox="0 0 2538 739" fill="none" xmlns="http://www.w3.org/2000/svg">
<path d="M674.8 297.528C687.941 297.528 699.44 300.197 709.296 305.536C712.581 307.179 713.813 310.259 712.992 314.776L702.52 370.216C702.109 375.144 699.235 376.581 693.896 374.528C687.736 372.475 680.549 371.448 672.336 371.448C666.997 371.448 662.891 371.653 660.016 372.064C642.768 372.885 628.395 379.045 616.896 390.544C605.397 401.632 599.648 416.211 599.648 434.28V608.608C599.648 610.661 598.827 612.509 597.184 614.152C595.952 615.384 594.309 616 592.256 616H535.584C533.531 616 531.683 615.384 530.04 614.152C528.808 612.509 528.192 610.661 528.192 608.608V308.616C528.192 306.563 528.808 304.92 530.04 303.688C531.683 302.045 533.531 301.224 535.584 301.224H592.256C594.309 301.224 595.952 302.045 597.184 303.688C598.827 304.92 599.648 306.563 599.648 308.616V336.336C599.648 337.979 599.853 339.005 600.264 339.416C601.085 339.416 601.907 338.8 602.728 337.568C619.976 310.875 644 297.528 674.8 297.528ZM982.314 423.192C983.957 433.459 984.778 444.957 984.778 457.688L984.162 476.784C984.162 481.712 981.698 484.176 976.77 484.176H783.962C781.909 484.176 780.882 485.203 780.882 487.256C782.114 500.808 783.962 510.048 786.426 514.976C796.282 544.544 820.306 559.533 858.498 559.944C886.423 559.944 908.599 548.445 925.026 525.448C926.669 522.984 928.722 521.752 931.186 521.752C932.829 521.752 934.266 522.368 935.498 523.6L973.69 555.016C977.386 557.891 978.002 561.176 975.538 564.872C962.807 582.941 945.765 596.904 924.41 606.76C903.466 616.616 880.058 621.544 854.186 621.544C822.154 621.544 794.845 614.357 772.258 599.984C750.082 585.611 733.861 565.488 723.594 539.616C714.149 517.44 709.426 486.64 709.426 447.216C709.426 423.397 711.89 404.096 716.818 389.312C725.031 360.565 740.431 337.979 763.018 321.552C786.015 304.715 813.53 296.296 845.562 296.296C926.463 296.296 972.047 338.595 982.314 423.192ZM845.562 357.896C830.367 357.896 817.637 361.797 807.37 369.6C797.514 376.992 790.533 387.464 786.426 401.016C783.962 407.997 782.319 417.032 781.498 428.12C780.677 430.173 781.498 431.2 783.962 431.2H909.01C911.063 431.2 912.09 430.173 912.09 428.12C911.269 417.853 910.037 410.051 908.394 404.712C904.698 389.928 897.306 378.429 886.218 370.216C875.541 362.003 861.989 357.896 845.562 357.896ZM1125.35 619.696C1099.48 619.696 1076.69 616 1056.98 608.608C1037.67 600.805 1022.68 590.333 1012.01 577.192C1001.33 563.64 995.991 548.651 995.991 532.224V526.68C995.991 524.627 996.607 522.984 997.839 521.752C999.482 520.109 1001.33 519.288 1003.38 519.288H1057.59C1059.64 519.288 1061.29 520.109 1062.52 521.752C1064.16 522.984 1064.98 524.627 1064.98 526.68V527.912C1064.98 538.179 1070.53 547.213 1081.62 555.016C1093.11 562.408 1107.49 566.104 1124.74 566.104C1141.16 566.104 1154.51 562.819 1164.78 556.248C1175.04 549.267 1180.18 540.643 1180.18 530.376C1180.18 520.931 1175.86 513.949 1167.24 509.432C1159.03 504.504 1145.47 499.371 1126.58 494.032L1103.18 486.64C1082.23 480.48 1064.57 473.909 1050.2 466.928C1035.83 459.947 1023.71 450.501 1013.86 438.592C1004 426.272 999.071 410.667 999.071 391.776C999.071 363.029 1010.36 340.237 1032.95 323.4C1055.54 306.152 1085.31 297.528 1122.27 297.528C1147.32 297.528 1169.29 301.635 1188.18 309.848C1207.07 317.651 1221.65 328.739 1231.92 343.112C1242.19 357.075 1247.32 373.091 1247.32 391.16C1247.32 393.213 1246.5 395.061 1244.86 396.704C1243.62 397.936 1241.98 398.552 1239.93 398.552H1187.57C1185.51 398.552 1183.67 397.936 1182.02 396.704C1180.79 395.061 1180.18 393.213 1180.18 391.16C1180.18 380.483 1174.84 371.653 1164.16 364.672C1153.89 357.28 1139.72 353.584 1121.66 353.584C1105.64 353.584 1092.5 356.664 1082.23 362.824C1072.38 368.573 1067.45 376.787 1067.45 387.464C1067.45 397.32 1072.17 404.917 1081.62 410.256C1091.47 415.184 1107.69 420.728 1130.28 426.888L1143.83 430.584C1165.6 437.155 1183.87 443.931 1198.66 450.912C1213.44 457.483 1225.96 466.928 1236.23 479.248C1246.5 491.157 1251.63 506.763 1251.63 526.064C1251.63 555.221 1240.13 578.219 1217.14 595.056C1194.14 611.483 1163.54 619.696 1125.35 619.696ZM1438.39 300.608C1440.45 300.608 1442.09 301.429 1443.32 303.072C1444.97 304.304 1445.79 305.947 1445.79 308V356.664C1445.79 358.717 1444.97 360.565 1443.32 362.208C1442.09 363.44 1440.45 364.056 1438.39 364.056H1377.41C1375.36 364.056 1374.33 365.083 1374.33 367.136V608.608C1374.33 610.661 1373.51 612.509 1371.87 614.152C1370.63 615.384 1368.99 616 1366.94 616H1310.27C1308.21 616 1306.37 615.384 1304.72 614.152C1303.49 612.509 1302.87 610.661 1302.87 608.608V367.136C1302.87 365.083 1301.85 364.056 1299.79 364.056H1261.6C1259.55 364.056 1257.7 363.44 1256.06 362.208C1254.83 360.565 1254.21 358.717 1254.21 356.664V308C1254.21 305.947 1254.83 304.304 1256.06 303.072C1257.7 301.429 1259.55 300.608 1261.6 300.608H1299.79C1301.85 300.608 1302.87 299.581 1302.87 297.528V286.44C1302.87 259.747 1306.37 239.213 1313.35 224.84C1320.33 210.056 1331.83 199.584 1347.84 193.424C1363.86 187.264 1386.45 184.389 1415.6 184.8H1437.16C1439.22 184.8 1440.86 185.621 1442.09 187.264C1443.73 188.496 1444.55 190.139 1444.55 192.192V235.312C1444.55 237.365 1443.73 239.213 1442.09 240.856C1440.86 242.088 1439.22 242.704 1437.16 242.704H1421.15C1403.49 242.704 1391.17 246.195 1384.19 253.176C1377.62 260.157 1374.33 272.888 1374.33 291.368V297.528C1374.33 299.581 1375.36 300.608 1377.41 300.608H1438.39ZM1712.42 423.192C1714.06 433.459 1714.88 444.957 1714.88 457.688L1714.27 476.784C1714.27 481.712 1711.8 484.176 1706.87 484.176H1514.07C1512.01 484.176 1510.99 485.203 1510.99 487.256C1512.22 500.808 1514.07 510.048 1516.53 514.976C1526.39 544.544 1550.41 559.533 1588.6 559.944C1616.53 559.944 1638.7 548.445 1655.13 525.448C1656.77 522.984 1658.83 521.752 1661.29 521.752C1662.93 521.752 1664.37 522.368 1665.6 523.6L1703.79 555.016C1707.49 557.891 1708.11 561.176 1705.64 564.872C1692.91 582.941 1675.87 596.904 1654.51 606.76C1633.57 616.616 1610.16 621.544 1584.29 621.544C1552.26 621.544 1524.95 614.357 1502.36 599.984C1480.19 585.611 1463.97 565.488 1453.7 539.616C1444.25 517.44 1439.53 486.64 1439.53 447.216C1439.53 423.397 1441.99 404.096 1446.92 389.312C1455.14 360.565 1470.54 337.979 1493.12 321.552C1516.12 304.715 1543.63 296.296 1575.67 296.296C1656.57 296.296 1702.15 338.595 1712.42 423.192ZM1575.67 357.896C1560.47 357.896 1547.74 361.797 1537.47 369.6C1527.62 376.992 1520.64 387.464 1516.53 401.016C1514.07 407.997 1512.42 417.032 1511.6 428.12C1510.78 430.173 1511.6 431.2 1514.07 431.2H1639.11C1641.17 431.2 1642.19 430.173 1642.19 428.12C1641.37 417.853 1640.14 410.051 1638.5 404.712C1634.8 389.928 1627.41 378.429 1616.32 370.216C1605.65 362.003 1592.09 357.896 1575.67 357.896ZM2008.72 382.536C2015.71 405.533 2019.2 430.584 2019.2 457.688C2019.2 486.845 2015.29 512.512 2007.49 534.688C1998.46 561.792 1983.88 582.941 1963.76 598.136C1943.63 613.331 1918.99 620.928 1889.84 620.928C1861.09 620.928 1837.48 610.045 1819 588.28C1818.17 587.048 1817.35 586.637 1816.53 587.048C1815.71 587.459 1815.3 588.28 1815.3 589.512V608.608C1815.3 610.661 1814.48 612.509 1812.84 614.152C1811.6 615.384 1809.96 616 1807.91 616H1751.24C1749.18 616 1747.33 615.384 1745.69 614.152C1744.46 612.509 1743.84 610.661 1743.84 608.608V192.192C1743.84 190.139 1744.46 188.496 1745.69 187.264C1747.33 185.621 1749.18 184.8 1751.24 184.8H1807.91C1809.96 184.8 1811.6 185.621 1812.84 187.264C1814.48 188.496 1815.3 190.139 1815.3 192.192V325.864C1815.3 327.096 1815.71 327.917 1816.53 328.328C1817.35 328.739 1818.17 328.533 1819 327.712C1836.65 306.768 1860.06 296.296 1889.22 296.296C1919.61 296.296 1944.66 303.893 1964.37 319.088C1984.49 334.283 1999.28 355.432 2008.72 382.536ZM1931.11 529.76C1940.96 512.512 1945.89 488.899 1945.89 458.92C1945.89 426.888 1939.73 401.837 1927.41 383.768C1916.32 366.52 1899.9 357.896 1878.13 357.896C1858.01 357.896 1842.61 366.931 1831.93 385C1821.67 401.837 1816.53 426.272 1816.53 458.304C1816.53 489.925 1821.25 513.744 1830.7 529.76C1841.38 549.472 1857.39 559.328 1878.75 559.328C1890.25 559.328 1900.51 556.864 1909.55 551.936C1918.58 546.597 1925.77 539.205 1931.11 529.76ZM2313.45 423.192C2315.09 433.459 2315.92 444.957 2315.92 457.688L2315.3 476.784C2315.3 481.712 2312.84 484.176 2307.91 484.176H2115.1C2113.05 484.176 2112.02 485.203 2112.02 487.256C2113.25 500.808 2115.1 510.048 2117.56 514.976C2127.42 544.544 2151.44 559.533 2189.64 559.944C2217.56 559.944 2239.74 548.445 2256.16 525.448C2257.81 522.984 2259.86 521.752 2262.32 521.752C2263.97 521.752 2265.4 522.368 2266.64 523.6L2304.83 555.016C2308.52 557.891 2309.14 561.176 2306.68 564.872C2293.94 582.941 2276.9 596.904 2255.55 606.76C2234.6 616.616 2211.2 621.544 2185.32 621.544C2153.29 621.544 2125.98 614.357 2103.4 599.984C2081.22 585.611 2065 565.488 2054.73 539.616C2045.29 517.44 2040.56 486.64 2040.56 447.216C2040.56 423.397 2043.03 404.096 2047.96 389.312C2056.17 360.565 2071.57 337.979 2094.16 321.552C2117.15 304.715 2144.67 296.296 2176.7 296.296C2257.6 296.296 2303.18 338.595 2313.45 423.192ZM2176.7 357.896C2161.5 357.896 2148.77 361.797 2138.51 369.6C2128.65 376.992 2121.67 387.464 2117.56 401.016C2115.1 407.997 2113.46 417.032 2112.64 428.12C2111.81 430.173 2112.64 431.2 2115.1 431.2H2240.15C2242.2 431.2 2243.23 430.173 2243.23 428.12C2242.41 417.853 2241.17 410.051 2239.53 404.712C2235.84 389.928 2228.44 378.429 2217.36 370.216C2206.68 362.003 2193.13 357.896 2176.7 357.896ZM2490.87 297.528C2504.01 297.528 2515.51 300.197 2525.37 305.536C2528.65 307.179 2529.88 310.259 2529.06 314.776L2518.59 370.216C2518.18 375.144 2515.3 376.581 2509.97 374.528C2503.81 372.475 2496.62 371.448 2488.41 371.448C2483.07 371.448 2478.96 371.653 2476.09 372.064C2458.84 372.885 2444.46 379.045 2432.97 390.544C2421.47 401.632 2415.72 416.211 2415.72 434.28V608.608C2415.72 610.661 2414.9 612.509 2413.25 614.152C2412.02 615.384 2410.38 616 2408.33 616H2351.65C2349.6 616 2347.75 615.384 2346.11 614.152C2344.88 612.509 2344.26 610.661 2344.26 608.608V308.616C2344.26 306.563 2344.88 304.92 2346.11 303.688C2347.75 302.045 2349.6 301.224 2351.65 301.224H2408.33C2410.38 301.224 2412.02 302.045 2413.25 303.688C2414.9 304.92 2415.72 306.563 2415.72 308.616V336.336C2415.72 337.979 2415.92 339.005 2416.33 339.416C2417.15 339.416 2417.98 338.8 2418.8 337.568C2436.05 310.875 2460.07 297.528 2490.87 297.528Z" fill="white"/>
<path d="M325.795 458.401H136.205C128.581 458.401 122.4 464.582 122.4 472.206V508.736C122.4 554.956 160.002 592.558 206.222 592.558H255.777C301.997 592.558 339.598 554.956 339.598 508.736V472.206C339.599 464.581 333.419 458.401 325.795 458.401ZM255.778 564.95H206.223C175.226 564.95 150.01 539.732 150.01 508.737V486.011H311.99V508.737C311.99 539.732 286.774 564.95 255.778 564.95Z" fill="white"/>
<path d="M325.795 403.344H136.205C128.581 403.344 122.4 409.525 122.4 417.148C122.4 424.772 128.581 430.953 136.205 430.953H325.794C333.418 430.953 339.599 424.772 339.599 417.148C339.599 409.525 333.419 403.344 325.795 403.344Z" fill="white"/>
<path d="M399.226 403.973V386.257C399.226 365.311 395.367 345.252 388.341 326.74V227.33C388.341 208.952 373.39 194.001 355.011 194.001H324.188C305.809 194.001 290.858 208.952 290.858 227.33V229.046C272.251 221.938 252.074 218.031 231 218.031C209.926 218.031 189.751 221.938 171.144 229.045V227.329C171.144 208.951 156.193 194 137.815 194H106.992C88.6138 194 73.6628 208.951 73.6628 227.329V326.729C66.6345 345.245 62.7733 365.307 62.7733 386.257V403.973C27.313 409.181 0 439.797 0 476.681V544.703C0 567.539 18.5775 586.116 41.4122 586.116H62.7743V592.109C62.7743 623.223 88.0886 648.537 119.202 648.537H342.798C373.912 648.537 399.226 623.223 399.226 592.109V586.116H420.588C443.423 586.116 462 567.539 462 544.703V476.681C462 439.797 434.686 409.181 399.226 403.973ZM62.7743 558.506H41.4122C33.8009 558.506 27.609 552.313 27.609 544.702V476.68C27.609 455.068 42.6258 436.897 62.7743 432.056V558.506ZM318.467 227.33C318.467 224.176 321.033 221.61 324.188 221.61H355.011C358.166 221.61 360.732 224.176 360.732 227.33V279.274C348.805 264.837 334.517 252.418 318.468 242.61L318.467 227.33ZM101.273 227.33C101.273 224.176 103.839 221.61 106.993 221.61H137.816C140.97 221.61 143.536 224.176 143.536 227.33V242.607C127.488 252.415 113.201 264.832 101.274 279.269L101.273 227.33ZM371.617 592.108C371.617 607.999 358.688 620.926 342.799 620.926H119.202C103.311 620.926 90.3842 607.998 90.3842 592.108V386.257C90.3842 308.721 153.465 245.64 231.001 245.64C289.323 245.64 339.462 281.333 360.732 332.021V332.05H360.743C367.743 348.741 371.617 367.055 371.617 386.258V592.108ZM434.391 544.704C434.391 552.315 428.198 558.508 420.588 558.508H399.226V432.057C419.374 436.899 434.391 455.069 434.391 476.681V544.704Z" fill="white"/>
</svg>
